<?xml version="1.0" encoding="utf-8"?>
<!-- Generator: Adobe Illustrator 18.1.1, SVG Export Plug-In . SVG Version: 6.00 Build 0)  -->
<svg version="1.1" xmlns="http://www.w3.org/2000/svg" xmlns:xlink="http://www.w3.org/1999/xlink" x="0px" y="0px" width="190px"
	 height="50px" viewBox="0 0 190 50" enable-background="new 0 0 190 50" xml:space="preserve">
<g id="Layer_2" display="none">
	<rect x="19.3124733" y="12.3830137" display="inline" fill="#F06324" width="14.5171957" height="26.0875912"/>
	<g display="inline">
		<path fill="#EC2427" d="M20.2348022,25.4267483c0-5.2921753,2.4777164-10.0060425,6.3367577-13.0435104
			c-2.8223457-2.2220573-6.3829346-3.5470734-10.2532482-3.5470734c-9.1619415,0-16.5894775,7.427536-16.5894775,16.5905838
			c0,9.1625195,7.4275351,16.590601,16.5894775,16.590601c3.8703136,0,7.4309025-1.3255806,10.2532482-3.5470695
			C22.7125187,35.4322433,20.2348022,30.7189426,20.2348022,25.4267483"/>
	</g>
	<g display="inline">
		<path fill="#F9A01F" d="M53.4141922,25.4267483c0,9.1625195-7.427536,16.590601-16.5894852,16.590601
			c-3.8703041,0-7.4309025-1.3255806-10.2532501-3.5470695c3.8590508-3.0380363,6.3367691-7.7513371,6.3367691-13.0435314
			c0-5.2921753-2.4777184-10.0060425-6.3367691-13.0435104c2.8223476-2.2220573,6.382946-3.5470734,10.2532501-3.5470734
			C45.9866562,8.8361645,53.4141922,16.2637005,53.4141922,25.4267483"/>
		<path fill="#010101" d="M86.5490265,25.498497c0-1.9388142,1.2698364-3.5313148,3.3471832-3.5313148
			c1.9849854,0,3.3240967,1.5232449,3.3240967,3.5313148c0,2.0080853-1.3391113,3.5313301-3.3240967,3.5313301
			C87.8188629,29.0298271,86.5490265,27.4373264,86.5490265,25.498497 M95.4823532,25.498497v-5.5168705h-2.4005814v1.3391075
			c-0.7618942-0.9927788-1.9157333-1.6161652-3.4857025-1.6161652c-3.0932159,0-5.5168686,2.4242382-5.5168686,5.7939281
			c0,3.3702736,2.4236526,5.7939262,5.5168686,5.7939262c1.5699692,0,2.7238083-0.6233692,3.4857025-1.6155796v1.3385239h2.4005814
			V25.498497z M176.5494537,25.498497c0-1.9388142,1.2692566-3.5313148,3.3466187-3.5313148
			c1.9849701,0,3.3240967,1.5232449,3.3240967,3.5313148c0,2.0080853-1.3391266,3.5313301-3.3240967,3.5313301
			C177.8187103,29.0298271,176.5494537,27.4373264,176.5494537,25.498497 M188.1676941,30.4916706v0.1728821h0.1599274
			c0.0360565,0,0.0653381-0.0067539,0.0872955-0.0213947c0.0214081-0.0140762,0.0326538-0.0360374,0.0326538-0.0658875
			c0-0.028717-0.0112457-0.0501118-0.0326538-0.0642033c-0.0219574-0.0146427-0.051239-0.0213966-0.0872955-0.0213966H188.1676941z
			 M188.3293304,30.3694859c0.083313,0,0.147522,0.0185776,0.1931305,0.055748
			c0.0450592,0.0371532,0.0675659,0.0878334,0.0675659,0.1520367c0,0.0534954-0.0180054,0.0979881-0.0540161,0.1328907
			c-0.0360565,0.0349197-0.0873108,0.0563164-0.1537476,0.0642033l0.2128601,0.2455235h-0.1667023l-0.1970673-0.2438393h-0.0636597
			v0.2438393h-0.1390533v-0.6504021H188.3293304z M188.2876434,31.2434464c0.0754852,0,0.1464233-0.0146408,0.2111664-0.043375
			c0.0653381-0.0281487,0.1227722-0.0675716,0.1717529-0.1165657c0.0495605-0.0489769,0.0878448-0.1069756,0.1159973-0.1734314
			c0.028183-0.0664539,0.041687-0.1374111,0.041687-0.2128525c0-0.0754604-0.013504-0.1464176-0.041687-0.2123051
			c-0.0281525-0.0664539-0.0664368-0.1244526-0.1159973-0.1739979c-0.0489807-0.0489941-0.1064148-0.0872822-0.1717529-0.115448
			c-0.064743-0.0281487-0.1356812-0.0422249-0.2111664-0.0422249c-0.0765686,0-0.1481018,0.0140762-0.2150879,0.0422249
			c-0.0670166,0.0281658-0.1250305,0.0664539-0.1740112,0.115448c-0.0495605,0.0495453-0.0878448,0.1075439-0.1159973,0.1739979
			c-0.0281525,0.0658875-0.0422363,0.1368446-0.0422363,0.2123051c0,0.0754414,0.0140839,0.1463985,0.0422363,0.2128525
			c0.0281525,0.0664558,0.0664368,0.1244545,0.1159973,0.1734314c0.0489807,0.0489941,0.1069946,0.0884171,0.1740112,0.1165657
			C188.1395416,31.2288055,188.2110748,31.2434464,188.2876434,31.2434464 M188.2876434,29.9972591
			c0.0985413,0,0.1908875,0.0180264,0.2776489,0.0546131c0.0861206,0.0366039,0.1616058,0.0867329,0.2263641,0.1503696
			c0.064743,0.0636177,0.115448,0.1379604,0.1525879,0.2229919C188.9813995,30.5108147,189,30.6014843,189,30.6972218
			c0,0.0962868-0.0186005,0.1869545-0.0557556,0.2714195c-0.0371399,0.084465-0.0878448,0.1587887-0.1525879,0.2224255
			c-0.0647583,0.0630684-0.1402435,0.1137486-0.2263641,0.150919c-0.0867615,0.0371704-0.1791077,0.055748-0.2776489,0.055748
			c-0.1002197,0-0.1942596-0.0185776-0.2821045-0.055748c-0.0872955-0.0371704-0.1633301-0.0878506-0.2274933-0.150919
			c-0.064209-0.0636368-0.1148987-0.1379604-0.1520538-0.2224255s-0.0552063-0.1751328-0.0552063-0.2714195
			c0-0.0957375,0.0180511-0.1864071,0.0552063-0.2719879c0.0371552-0.0850315,0.0878448-0.1593742,0.1520538-0.2229919
			c0.0641632-0.0636368,0.1401978-0.1137657,0.2274933-0.1503696
			C188.0933838,30.0152855,188.1874237,29.9972591,188.2876434,29.9972591 M185.482193,25.498497v-9.9486113h-2.4005737v5.7708483
			c-0.7618866-0.9927788-1.9157104-1.6161652-3.4851227-1.6161652c-3.0937805,0-5.5174561,2.4242382-5.5174561,5.7939281
			c0,3.3702736,2.4236755,5.7939262,5.5174561,5.7939262c1.5694122,0,2.7232361-0.6233692,3.4851227-1.6155796v1.3385239h2.4005737
			V25.498497z M125.2589264,21.8517513c1.5468903,0,2.5391006,0.9691315,2.7930603,2.677063h-5.7240829
			C122.5812988,22.9363136,123.5509949,21.8517513,125.2589264,21.8517513 M125.3056717,19.7045689
			c-3.2317429,0-5.4937897,2.3543987-5.4937897,5.7939281c0,3.5088005,2.354393,5.7939262,5.6548309,5.7939262
			c1.6623383,0,3.1855698-0.4155674,4.5246506-1.5468731l-1.177475-1.7772064
			c-0.9235077,0.738802-2.1004257,1.1543865-3.2086487,1.1543865c-1.5463257,0-2.9546738-0.7157211-3.3010025-2.7012787h8.1944962
			c0.0231018-0.2995682,0.0461884-0.5997219,0.0461884-0.9229546
			C130.5218353,22.0589676,128.3983154,19.7045689,125.3056717,19.7045689 M154.2741699,25.498497
			c0-1.9388142,1.2698364-3.5313148,3.3471832-3.5313148c1.9849854,0,3.3240967,1.5232449,3.3240967,3.5313148
			c0,2.0080853-1.3391113,3.5313301-3.3240967,3.5313301C155.5440063,29.0298271,154.2741699,27.4373264,154.2741699,25.498497
			 M163.207489,25.498497v-5.5168705h-2.4005737v1.3391075c-0.7618866-0.9927788-1.9157257-1.6161652-3.4857025-1.6161652
			c-3.0932159,0-5.5168762,2.4242382-5.5168762,5.7939281c0,3.3702736,2.4236603,5.7939262,5.5168762,5.7939262
			c1.5699768,0,2.7238159-0.6233692,3.4857025-1.6155796v1.3385239h2.4005737V25.498497z M140.724411,25.498497
			c0,3.3471756,2.3318787,5.7939262,5.8862762,5.7939262c1.662323,0,2.769989-0.3693905,3.9700012-1.3159924l-1.1538391-1.9388313
			c-0.8998566,0.6464653-1.8464661,0.9922276-2.8854218,0.9922276c-1.9157257-0.0225296-3.3235321-1.407795-3.3235321-3.5313301
			c0-2.123518,1.4078064-3.5087852,3.3235321-3.5313148c1.0389557,0,1.9855652,0.3457623,2.8854218,0.9922123l1.1538391-1.9388142
			c-1.2000122-0.9466019-2.3076782-1.3160114-3.9700012-1.3160114
			C143.0562897,19.7045689,140.724411,22.1513195,140.724411,25.498497 M171.655365,19.7045689
			c-1.3846893,0-2.2851257,0.6464653-2.9079437,1.6161652v-1.3391075h-2.3774567v11.033741h2.4000092v-6.1864166
			c0-1.8233814,0.7849731-2.8392391,2.3549652-2.8392391c0.4848175,0,0.9921875,0.0692558,1.5001526,0.2770576l0.7387848-2.2620468
			C172.8328552,19.7969208,172.1402283,19.7045689,171.655365,19.7045689 M107.3466949,20.8589725
			c-1.1538391-0.761898-2.7469025-1.1544037-4.5010147-1.1544037c-2.7930603,0-4.5933609,1.3391075-4.5933609,3.5318813
			c0,1.8003025,1.3385391,2.9085121,3.8083649,3.2548256l1.1313095,0.1616249
			c1.3154449,0.1841373,1.9388275,0.5304489,1.9388275,1.1538181c0,0.85425-0.8773422,1.3391075-2.5160217,1.3391075
			c-1.6617584,0-2.8623352-0.5310173-3.6704102-1.1544037L97.813652,29.860981
			c1.3154449,0.9696999,2.9777679,1.4314423,4.7780685,1.4314423c3.1855545,0,5.0320282-1.5006981,5.0320282-3.6011353
			c0-1.9388142-1.4539719-2.954689-3.8545456-3.3010006l-1.1313019-0.1616077
			c-1.0389557-0.1379795-1.8695602-0.3457642-1.8695602-1.0845814c0-0.808073,0.7844238-1.292347,2.100441-1.292347
			c1.4077911,0,2.7699661,0.5304489,3.4395065,0.9460354L107.3466949,20.8589725z M138.3007507,19.7045689
			c-1.3847198,0-2.285141,0.6464653-2.9079437,1.6161652v-1.3391075h-2.3780365v11.033741h2.4005737v-6.1864166
			c0-1.8233814,0.7849731-2.8392391,2.35495-2.8392391c0.4842834,0,0.992218,0.0692558,1.5001373,0.2770576l0.7388153-2.2620468
			C139.478241,19.7969208,138.7855988,19.7045689,138.3007507,19.7045689 M117.8263245,19.9816265h-3.9238052v-3.346611h-2.4236679
			v3.346611h-2.2395172v2.192791h2.2395172v5.0320282c0,2.5627499,0.9922104,4.0859776,3.8314667,4.0859776
			c1.0389557,0,2.238945-0.3232155,3.0008469-0.854248l-0.692627-2.054245
			c-0.7157211,0.4155674-1.500145,0.6233673-2.1235199,0.6233673c-1.2005768,0-1.5924988-0.7388172-1.5924988-1.8464603v-4.9864197
			h3.9238052V19.9816265z M81.9556808,31.0153675v-6.9246674c0-2.6083584-1.6617737-4.3630352-4.3394012-4.3861313
			c-1.4083481-0.0230789-2.8623199,0.4155846-3.8781967,1.9624767c-0.7613297-1.2236576-1.9619064-1.9624767-3.6467438-1.9624767
			c-1.1774826,0-2.3313217,0.3463306-3.2317505,1.6392441v-1.3621864h-2.4005737v11.033741h2.4236603v-6.1171436
			c0-1.9157333,1.0620499-2.9310417,2.7007217-2.9310417c1.5925064,0,2.4005737,1.0383873,2.4005737,2.9079456v6.1402397h2.4236603
			v-6.1171436c0-1.9157333,1.108223-2.9310417,2.7007217-2.9310417c1.6386642,0,2.4236603,1.0383873,2.4236603,2.9079456v6.1402397
			H81.9556808z"/>
	</g>
</g>
<g id="Layer_1">
	<g id="XMLID_81_">
		<rect x="20.446476" y="11.7607441" fill="#F16022" width="14.3689699" height="25.8214493"/>
		<path id="XMLID_107_" fill="#E91D25" d="M21.3588829,24.6714687c0-5.2384243,2.452713-9.9038696,6.2721233-12.9107246
			c-2.7932835-2.1989546-6.3177395-3.5109549-10.1485081-3.5109549c-9.0687799,0-16.4204922,7.3522139-16.4204922,16.4216805
			c0,9.0693302,7.3517122,16.4216785,16.4204922,16.4216785c3.8307686,0,7.3552246-1.3120003,10.1485081-3.5109558
			C23.8115959,34.5752029,21.3588829,29.909893,21.3588829,24.6714687z"/>
		<path fill="#F69E1E" d="M54.2000046,24.6714687c0,9.0693302-7.3517113,16.4216785-16.4204941,16.4216785
			c-3.8307648,0-7.3552227-1.3120003-10.1485043-3.5109558c3.8195-3.0069885,6.2720776-7.6722984,6.2720776-12.9107227
			s-2.4525776-9.9038696-6.2720776-12.9107246c2.7932816-2.1989546,6.3177395-3.5109549,10.1485043-3.5109549
			C46.8482933,8.2497892,54.2000046,15.6020031,54.2000046,24.6714687z M52.6332855,34.8472977v-0.5286407h0.2131615v-0.1076965
			h-0.5428734v0.1076965h0.2132607v0.5286407H52.6332855z M53.6872406,34.8472977v-0.6373863h-0.1664047l-0.1914063,0.4384117
			l-0.191452-0.4384117h-0.1664963v0.6373863h0.1175079v-0.4807892l0.1794968,0.4145126h0.1218414l0.1794968-0.4155617v0.4818382
			H53.6872406z"/>
		<g>
			<g id="XMLID_82_">
				<path fill="#010101" d="M187.4263458,28.6254711c0.0849457,0,0.1645508,0.0157795,0.2391205,0.0473385
					c0.0744476,0.0315609,0.1396332,0.074688,0.1954041,0.1294994c0.0556183,0.0548134,0.0996094,0.1188869,0.1316376,0.1924992
					c0.0320435,0.0734558,0.0481873,0.1516399,0.0481873,0.2345142c0,0.0829144-0.0161438,0.1609402-0.0481873,0.2339573
					c-0.0320282,0.0729771-0.0760193,0.1368523-0.1316376,0.1916656c-0.0557709,0.0547714-0.1209564,0.0981369-0.1954041,0.1302147
					c-0.0745697,0.032156-0.1541748,0.0481739-0.2391205,0.0481739c-0.086853,0-0.1678925-0.0160179-0.243454-0.0481739
					c-0.075531-0.0320778-0.1409454-0.0754433-0.1961212-0.1302147c-0.0552826-0.0548134-0.0990143-0.1186886-0.1310425-0.1916656
					c-0.0320435-0.0730171-0.0480652-0.1510429-0.0480652-0.2339573c0-0.0828743,0.0160217-0.1610584,0.0480652-0.2345142
					c0.0320282-0.0736122,0.0757599-0.1376858,0.1310425-0.1924992c0.0551758-0.0548115,0.1205902-0.0979385,0.1961212-0.1294994
					C187.2584534,28.6412506,187.3394928,28.6254711,187.4263458,28.6254711z M187.4263458,29.700098
					c0.0651398,0,0.1259155-0.0124016,0.1821289-0.0369644c0.0562744-0.024725,0.1055298-0.0583115,0.147934-0.1007233
					c0.0425262-0.0424099,0.0758057-0.0922546,0.0999756-0.1494923c0.0242004-0.0572357,0.0362549-0.1184082,0.0362549-0.1835957
					c0-0.0650272-0.0120544-0.1262398-0.0362549-0.1834373c-0.0241699-0.0572376-0.0574493-0.1070805-0.0999756-0.1496506
					c-0.0424042-0.0424118-0.0916595-0.0756016-0.147934-0.0998077c-0.0562134-0.0242462-0.1169891-0.0362911-0.1821289-0.0362911
					c-0.0661469,0-0.1280365,0.0120449-0.185791,0.0362911c-0.057663,0.0242062-0.1077881,0.0573959-0.1502075,0.0998077
					c-0.0423584,0.0425701-0.0757446,0.0924129-0.0999603,0.1496506c-0.0240936,0.0571976-0.0362549,0.1184101-0.0362549,0.1834373
					c0,0.0651875,0.0121613,0.1263599,0.0362549,0.1835957c0.0242157,0.0572376,0.0576019,0.1070824,0.0999603,0.1494923
					c0.0424194,0.0424118,0.0925446,0.0759983,0.1502075,0.1007233
					C187.2983093,29.6876965,187.360199,29.700098,187.4263458,29.700098z M187.4618835,28.9466343
					c0.0720215,0,0.1275787,0.0160179,0.166626,0.0481739c0.0389099,0.0320377,0.0584259,0.0756416,0.0584259,0.1309319
					c0,0.0463848-0.0155487,0.0846634-0.0466614,0.1146717c-0.0310822,0.0301304-0.0752869,0.0486526-0.1324921,0.0555286
					l0.1835632,0.2116585h-0.1435699l-0.1701965-0.210228h-0.0548553v0.210228h-0.1198425v-0.5609646H187.4618835z
					 M187.3227234,29.0517673v0.1494923h0.1377258c0.0315247,0,0.0567169-0.0061207,0.0755157-0.0185623
					c0.018692-0.0122814,0.0280609-0.0312805,0.0280609-0.0569572c0-0.0246849-0.0093689-0.0431271-0.0280609-0.0555286
					c-0.0187988-0.0122833-0.0439911-0.0184441-0.0755157-0.0184441H187.3227234z"/>
			</g>
		</g>
		<g>
			<path fill="#010101" d="M77.984375,20.0205078c0.6230469,0,1.1953125,0.1025391,1.7207031,0.3081055
				c0.5234375,0.2050781,0.9765625,0.4931641,1.359375,0.8632813c0.3808594,0.3701172,0.6757813,0.8125,0.8847656,1.3251953
				c0.2089844,0.5136719,0.3125,1.078125,0.3125,1.6943359v6.621582H79.953125v-5.862793
				c0-0.8867188-0.2148438-1.5693359-0.6445313-2.0458984c-0.4277344-0.4765625-1.03125-0.7148438-1.8085938-0.7148438
				c-0.375,0-0.7265625,0.0605469-1.0566406,0.1816406s-0.6171875,0.2988281-0.8632813,0.5332031
				c-0.2460938,0.2353516-0.4414063,0.5263672-0.5878906,0.875c-0.1484375,0.3476563-0.2207031,0.7460938-0.2207031,1.1933594
				v5.840332h-2.3100586v-5.862793c0-0.8867188-0.2143555-1.5693359-0.6435547-2.0458984
				c-0.4287109-0.4765625-1.0322266-0.7148438-1.8095703-0.7148438c-0.3740234,0-0.7255859,0.0605469-1.0556641,0.1816406
				s-0.6181641,0.2988281-0.8637695,0.5332031c-0.2456055,0.2353516-0.4418945,0.5263672-0.5883789,0.875
				c-0.1469727,0.3476563-0.2202148,0.7460938-0.2202148,1.1933594v5.840332h-2.3095703V20.2954102h2.2875977v1.2871094
				c0.2128906-0.3076172,0.4492188-0.5625,0.7094727-0.7646484s0.5336914-0.3603516,0.8198242-0.4785156
				c0.2861328-0.1171875,0.5737305-0.199707,0.8632813-0.2475586c0.2895508-0.0473633,0.5703125-0.0712891,0.8417969-0.0712891
				c0.8066406,0,1.5234375,0.1669922,2.1503906,0.5004883c0.6269531,0.3339844,1.1235352,0.7939453,1.4897461,1.3808594
				c0.2285156-0.3740234,0.4960938-0.6835938,0.8027344-0.9296875c0.3085938-0.2451172,0.6328125-0.4384766,0.9746094-0.5776367
				s0.6894531-0.2363281,1.0449219-0.2915039S77.6542969,20.0205078,77.984375,20.0205078z"/>
			<path fill="#010101" d="M95.7705078,30.8330078h-2.2988281v-1.2646484
				c-0.3671875,0.46875-0.8212891,0.8427734-1.3642578,1.1220703c-0.5429688,0.2783203-1.1914063,0.4179688-1.9462891,0.4179688
				c-0.7412109,0-1.4306641-0.1376953-2.0683594-0.4130859c-0.6376953-0.2744141-1.1953125-0.6582031-1.671875-1.1494141
				s-0.8505859-1.0761719-1.1220703-1.7539063c-0.2714844-0.6787109-0.4072266-1.4208984-0.4072266-2.2270508
				c0-0.8066406,0.1357422-1.5498047,0.4072266-2.2275391c0.2714844-0.6787109,0.6455078-1.2636719,1.1220703-1.7548828
				s1.0341797-0.875,1.671875-1.1494141c0.6376953-0.2749023,1.3271484-0.4125977,2.0683594-0.4125977
				c0.7548828,0,1.4033203,0.1411133,1.9462891,0.4233398c0.5429688,0.2832031,0.9970703,0.6582031,1.3642578,1.1279297v-1.2763672
				h2.2988281V30.8330078z M90.4355469,22.1870117c-0.4990234,0-0.9443359,0.0908203-1.3359375,0.2695313
				c-0.3925781,0.1806641-0.7246094,0.421875-0.9960938,0.7265625s-0.4804688,0.6621094-0.6269531,1.0722656
				c-0.1464844,0.4111328-0.2197266,0.8466797-0.2197266,1.3095703c0,0.4614258,0.0732422,0.8969727,0.2197266,1.3081055
				s0.3554688,0.7685547,0.6269531,1.0722656C88.375,28.25,88.7070313,28.4921875,89.0996094,28.671875
				c0.3916016,0.1796875,0.8369141,0.2695313,1.3359375,0.2695313c0.4765625,0,0.9091797-0.0869141,1.2978516-0.2587891
				s0.7226563-0.4091797,1.0009766-0.7099609c0.2792969-0.2998047,0.4951172-0.65625,0.6494141-1.0664063
				c0.1542969-0.4111328,0.2304688-0.8583984,0.2304688-1.3413086c0-0.484375-0.0761719-0.9316406-0.2304688-1.3427734
				c-0.1542969-0.4101563-0.3701172-0.765625-0.6494141-1.0664063c-0.2783203-0.3007813-0.6123047-0.5371094-1.0009766-0.7099609
				C91.3447266,22.2739258,90.9121094,22.1870117,90.4355469,22.1870117z"/>
			<path fill="#010101" d="M106.4394531,22.9350586c-0.1611328-0.0947266-0.359375-0.1953125-0.59375-0.3017578
				s-0.4951172-0.2041016-0.78125-0.2919922c-0.2851563-0.0878906-0.5878906-0.1611328-0.9072266-0.2197266
				s-0.6435547-0.0878906-0.9736328-0.0878906c-0.6308594,0-1.1201172,0.1152344-1.4677734,0.3466797
				c-0.3486328,0.2304688-0.5234375,0.5332031-0.5234375,0.9072266c0,0.1835938,0.0458984,0.3369141,0.1376953,0.4619141
				s0.2148438,0.2275391,0.3691406,0.3076172c0.1533203,0.0810547,0.3369141,0.1455078,0.5498047,0.1923828
				c0.2128906,0.0478516,0.4394531,0.0908203,0.6816406,0.1269531l1.0888672,0.1650391
				c1.1513672,0.1689453,2.0498047,0.5039063,2.6953125,1.0068359c0.6455078,0.5014648,0.9677734,1.2036133,0.9677734,2.105957
				c0,0.5058594-0.1083984,0.9697266-0.3242188,1.3916016c-0.2167969,0.421875-0.5283203,0.7841797-0.9345703,1.0888672
				c-0.4072266,0.3037109-0.9101563,0.5410156-1.5078125,0.7089844c-0.5976563,0.1689453-1.2744141,0.2529297-2.0292969,0.2529297
				c-0.2714844,0-0.5869141-0.0166016-0.9462891-0.0488281c-0.359375-0.0332031-0.7402344-0.0996094-1.1435547-0.1982422
				s-0.8144531-0.2363281-1.2324219-0.4130859c-0.4179688-0.1757813-0.8173828-0.40625-1.1982422-0.6923828l1.0664063-1.7275391
				c0.1904297,0.1474609,0.3984375,0.2851563,0.6220703,0.4130859s0.4765625,0.2421875,0.7587891,0.3408203
				s0.59375,0.1777344,0.9345703,0.2363281c0.3417969,0.0585938,0.7285156,0.0878906,1.1611328,0.0878906
				c0.7919922,0,1.3896484-0.1152344,1.7929688-0.3466797c0.4033203-0.2304688,0.6044922-0.5439453,0.6044922-0.9404297
				c0-0.2998047-0.1464844-0.5478516-0.4394531-0.7421875c-0.2939453-0.1943359-0.7558594-0.3349609-1.3867188-0.4238281
				l-1.0996094-0.1425781c-1.1738281-0.1611328-2.0625-0.503418-2.6679688-1.027832
				c-0.6044922-0.5244141-0.9072266-1.2119141-0.9072266-2.0625c0-0.5205078,0.1005859-0.9902344,0.3027344-1.4082031
				c0.2011719-0.4179688,0.4912109-0.7714844,0.8691406-1.0615234c0.3769531-0.2900391,0.8339844-0.5126953,1.3691406-0.6708984
				c0.5351563-0.1577148,1.140625-0.2363281,1.8154297-0.2363281c0.828125,0,1.609375,0.097168,2.3427734,0.2910156
				c0.7333984,0.1953125,1.375,0.4677734,1.9248047,0.8193359L106.4394531,22.9350586z"/>
			<path fill="#010101" d="M117.4619141,22.3852539h-4.0371094v4.5864258c0,0.3525391,0.0439453,0.6533203,0.1318359,0.9023438
				s0.2070313,0.453125,0.3574219,0.6103516c0.1503906,0.1582031,0.3261719,0.2734375,0.5283203,0.3466797
				c0.2011719,0.0732422,0.4199219,0.1103516,0.6542969,0.1103516c0.359375,0,0.7236328-0.0703125,1.0947266-0.2089844
				c0.3701172-0.1396484,0.7128906-0.3085938,1.0283203-0.5068359l0.9130859,1.8378906
				c-0.4257813,0.2851563-0.9042969,0.53125-1.4355469,0.7363281c-0.5322266,0.2050781-1.1318359,0.3085938-1.7988281,0.3085938
				c-1.1953125,0-2.125-0.3320313-2.7880859-0.9960938c-0.6640625-0.6630859-0.9960938-1.6953125-0.9960938-3.0966797v-4.6303711
				h-2.1005859v-2.0898438h2.1005859v-3.1899414h2.3105469v3.1899414h4.0371094V22.3852539z"/>
			<path fill="#010101" d="M124.6445313,20.0205078c0.7333984,0,1.40625,0.1337891,2.0185547,0.4018555
				c0.6123047,0.2675781,1.1367188,0.6455078,1.5732422,1.1328125c0.4355469,0.4873047,0.7773438,1.0703125,1.0224609,1.7490234
				c0.2460938,0.6777344,0.3691406,1.4277344,0.3691406,2.2490234c0,0.1474609-0.0039063,0.2939453-0.0117188,0.4404297
				c-0.0068359,0.1459961-0.0175781,0.2856445-0.0322266,0.4174805h-7.7880859
				c0.0732422,0.4765625,0.2089844,0.8837891,0.40625,1.2207031c0.1982422,0.3378906,0.4365234,0.6142578,0.7158203,0.8310547
				c0.2783203,0.2158203,0.5898438,0.3759766,0.9345703,0.4785156s0.7041016,0.1533203,1.078125,0.1533203
				c0.5283203,0,1.0576172-0.0966797,1.5898438-0.2910156c0.53125-0.1943359,1.0166016-0.4677734,1.4570313-0.8193359
				l1.1435547,1.6386719c-0.6445313,0.5498047-1.3291016,0.9345703-2.0507813,1.1552734
				c-0.7226563,0.2197266-1.4833984,0.3300781-2.2832031,0.3300781c-0.7919922,0-1.5175781-0.1328125-2.1777344-0.3964844
				s-1.2285156-0.6376953-1.7050781-1.1220703c-0.4765625-0.4833984-0.8466797-1.0664063-1.1103516-1.7490234
				c-0.2646484-0.6816406-0.3964844-1.4404297-0.3964844-2.2758789c0-0.8212891,0.1279297-1.5732422,0.3847656-2.2558594
				c0.2568359-0.6816406,0.6162109-1.2666016,1.078125-1.7539063s1.0136719-0.8652344,1.6552734-1.1328125
				C123.1572266,20.1542969,123.8671875,20.0205078,124.6445313,20.0205078z M124.6005859,22.0668945
				c-0.4111328,0-0.7753906,0.0615234-1.0947266,0.1865234c-0.3183594,0.125-0.59375,0.3027344-0.8251953,0.5332031
				c-0.2304688,0.2314453-0.4199219,0.5068359-0.5664063,0.8251953c-0.1464844,0.3193359-0.2490234,0.6699219-0.3076172,1.0507813
				h5.4667969c-0.125-0.8212891-0.4179688-1.4589844-0.8798828-1.9140625S125.3339844,22.0668945,124.6005859,22.0668945z"/>
			<path fill="#010101" d="M137.7011719,20.0205078c0.3525391,0,0.6699219,0.0239258,0.9521484,0.0712891
				c0.2822266,0.0478516,0.5556641,0.1230469,0.8193359,0.2255859l-0.5498047,2.2768555
				c-0.2421875-0.1240234-0.5244141-0.2197266-0.8476563-0.2861328c-0.3222656-0.0654297-0.6230469-0.0986328-0.9013672-0.0986328
				c-0.3671875,0-0.7041016,0.0625-1.0126953,0.1875c-0.3076172,0.1240234-0.5712891,0.3076172-0.7919922,0.5498047
				c-0.2197266,0.2421875-0.3916016,0.5390625-0.5166016,0.890625c-0.125,0.3525391-0.1875,0.7519531-0.1875,1.1992188v5.7963867
				h-2.2988281V20.2954102h2.2773438v1.1884766c0.3515625-0.5068359,0.7880859-0.8759766,1.3085938-1.1113281
				C136.4726563,20.1376953,137.0556641,20.0205078,137.7011719,20.0205078z"/>
			<path fill="#010101" d="M146.0507813,20.0205078c0.7919922,0,1.5292969,0.1411133,2.2109375,0.4233398
				c0.6826172,0.2832031,1.2578125,0.7021484,1.7275391,1.2597656l-1.4746094,1.5732422
				c-0.3740234-0.3525391-0.7626953-0.6220703-1.1660156-0.8085938c-0.4033203-0.1875-0.8574219-0.28125-1.3632813-0.28125
				c-0.4404297,0-0.8515625,0.0830078-1.2324219,0.2480469c-0.3818359,0.1650391-0.7109375,0.3955078-0.9902344,0.6933594
				c-0.2783203,0.296875-0.4970703,0.6523438-0.6542969,1.0664063c-0.1582031,0.4150391-0.2363281,0.8710938-0.2363281,1.3701172
				c0,0.4975586,0.078125,0.9545898,0.2363281,1.3686523c0.1572266,0.4140625,0.3759766,0.7695313,0.6542969,1.0673828
				c0.2792969,0.296875,0.6083984,0.5273438,0.9902344,0.6923828c0.3808594,0.1650391,0.7919922,0.2480469,1.2324219,0.2480469
				c0.5058594,0,0.9785156-0.1044922,1.4189453-0.3134766c0.4394531-0.2089844,0.828125-0.4716797,1.1660156-0.7871094
				l1.4189453,1.5839844c-0.484375,0.5576172-1.0634766,0.9775391-1.7382813,1.2597656s-1.4082031,0.4238281-2.2001953,0.4238281
				c-0.8359375,0-1.5947266-0.1416016-2.2773438-0.4238281c-0.6816406-0.2822266-1.2646484-0.6708984-1.7480469-1.1660156
				c-0.484375-0.4951172-0.8583984-1.0800781-1.1220703-1.7548828c-0.2646484-0.6738281-0.3964844-1.4072266-0.3964844-2.1987305
				c0-0.7919922,0.1318359-1.5253906,0.3964844-2.2001953c0.2636719-0.6748047,0.6376953-1.2597656,1.1220703-1.7548828
				c0.4833984-0.4951172,1.0664063-0.8828125,1.7480469-1.1660156
				C144.4560547,20.1616211,145.2148438,20.0205078,146.0507813,20.0205078z"/>
			<path fill="#010101" d="M162.3525391,30.8330078h-2.2988281v-1.2646484
				c-0.3671875,0.46875-0.8212891,0.8427734-1.3642578,1.1220703c-0.5429688,0.2783203-1.1914063,0.4179688-1.9462891,0.4179688
				c-0.7412109,0-1.4306641-0.1376953-2.0683594-0.4130859c-0.6376953-0.2744141-1.1953125-0.6582031-1.671875-1.1494141
				s-0.8505859-1.0761719-1.1220703-1.7539063c-0.2714844-0.6787109-0.4072266-1.4208984-0.4072266-2.2270508
				c0-0.8066406,0.1357422-1.5498047,0.4072266-2.2275391c0.2714844-0.6787109,0.6455078-1.2636719,1.1220703-1.7548828
				s1.0341797-0.875,1.671875-1.1494141c0.6376953-0.2749023,1.3271484-0.4125977,2.0683594-0.4125977
				c0.7548828,0,1.4033203,0.1411133,1.9462891,0.4233398c0.5429688,0.2832031,0.9970703,0.6582031,1.3642578,1.1279297v-1.2763672
				h2.2988281V30.8330078z M157.0175781,22.1870117c-0.4990234,0-0.9443359,0.0908203-1.3359375,0.2695313
				c-0.3925781,0.1806641-0.7246094,0.421875-0.9960938,0.7265625s-0.4804688,0.6621094-0.6269531,1.0722656
				c-0.1464844,0.4111328-0.2197266,0.8466797-0.2197266,1.3095703c0,0.4614258,0.0732422,0.8969727,0.2197266,1.3081055
				s0.3554688,0.7685547,0.6269531,1.0722656c0.2714844,0.3046875,0.6035156,0.546875,0.9960938,0.7265625
				c0.3916016,0.1796875,0.8369141,0.2695313,1.3359375,0.2695313c0.4765625,0,0.9091797-0.0869141,1.2978516-0.2587891
				s0.7226563-0.4091797,1.0009766-0.7099609c0.2792969-0.2998047,0.4951172-0.65625,0.6494141-1.0664063
				c0.1542969-0.4111328,0.2304688-0.8583984,0.2304688-1.3413086c0-0.484375-0.0761719-0.9316406-0.2304688-1.3427734
				c-0.1542969-0.4101563-0.3701172-0.765625-0.6494141-1.0664063c-0.2783203-0.3007813-0.6123047-0.5371094-1.0009766-0.7099609
				C157.9267578,22.2739258,157.4941406,22.1870117,157.0175781,22.1870117z"/>
			<path fill="#010101" d="M171.1855469,20.0205078c0.3525391,0,0.6699219,0.0239258,0.9521484,0.0712891
				c0.2822266,0.0478516,0.5556641,0.1230469,0.8193359,0.2255859l-0.5498047,2.2768555
				c-0.2421875-0.1240234-0.5244141-0.2197266-0.8476563-0.2861328c-0.3222656-0.0654297-0.6230469-0.0986328-0.9013672-0.0986328
				c-0.3671875,0-0.7041016,0.0625-1.0126953,0.1875c-0.3076172,0.1240234-0.5712891,0.3076172-0.7919922,0.5498047
				c-0.2197266,0.2421875-0.3916016,0.5390625-0.5166016,0.890625c-0.125,0.3525391-0.1875,0.7519531-0.1875,1.1992188v5.7963867
				h-2.2988281V20.2954102h2.2773438v1.1884766c0.3515625-0.5068359,0.7880859-0.8759766,1.3085938-1.1113281
				C169.9570313,20.1376953,170.5400391,20.0205078,171.1855469,20.0205078z"/>
			<path fill="#010101" d="M179.2597656,20.0205078c0.7548828,0,1.4033203,0.1411133,1.9462891,0.4233398
				c0.5429688,0.2832031,0.9970703,0.6582031,1.3642578,1.1279297v-6.578125h2.2988281v15.8393555h-2.2988281v-1.2646484
				c-0.3671875,0.46875-0.8212891,0.8427734-1.3642578,1.1220703c-0.5429688,0.2783203-1.1914063,0.4179688-1.9462891,0.4179688
				c-0.7412109,0-1.4306641-0.1376953-2.0683594-0.4130859c-0.6376953-0.2744141-1.1953125-0.6582031-1.671875-1.1494141
				s-0.8505859-1.0761719-1.1220703-1.7539063c-0.2714844-0.6787109-0.4072266-1.4208984-0.4072266-2.2270508
				c0-0.8066406,0.1357422-1.5498047,0.4072266-2.2275391c0.2714844-0.6787109,0.6455078-1.2636719,1.1220703-1.7548828
				s1.0341797-0.875,1.671875-1.1494141C177.8291016,20.1582031,178.5185547,20.0205078,179.2597656,20.0205078z
				 M179.5341797,22.1870117c-0.4990234,0-0.9443359,0.0908203-1.3359375,0.2695313
				c-0.3925781,0.1806641-0.7246094,0.421875-0.9960938,0.7265625s-0.4804688,0.6621094-0.6269531,1.0722656
				c-0.1464844,0.4111328-0.2197266,0.8466797-0.2197266,1.3095703c0,0.4614258,0.0732422,0.8969727,0.2197266,1.3081055
				s0.3554688,0.7685547,0.6269531,1.0722656c0.2714844,0.3046875,0.6035156,0.546875,0.9960938,0.7265625
				c0.3916016,0.1796875,0.8369141,0.2695313,1.3359375,0.2695313c0.4765625,0,0.9091797-0.0869141,1.2978516-0.2587891
				s0.7226563-0.4091797,1.0009766-0.7099609c0.2792969-0.2998047,0.4951172-0.65625,0.6494141-1.0664063
				c0.1542969-0.4111328,0.2304688-0.8583984,0.2304688-1.3413086c0-0.484375-0.0761719-0.9316406-0.2304688-1.3427734
				c-0.1542969-0.4101563-0.3701172-0.765625-0.6494141-1.0664063c-0.2783203-0.3007813-0.6123047-0.5371094-1.0009766-0.7099609
				C180.4433594,22.2739258,180.0107422,22.1870117,179.5341797,22.1870117z"/>
		</g>
	</g>
	<path display="none" fill="#E91D25" d="M86.6809692,24.7725468c0-1.9054832,1.2480087-3.4706078,3.2896347-3.4706078
		c1.9508667,0,3.2669601,1.4970589,3.2669601,3.4706078c0,1.9735661-1.3160934,3.4706249-3.2669601,3.4706249
		C87.928978,28.2431717,86.6809692,26.6780472,86.6809692,24.7725468 M95.4607239,24.7725468v-5.4220314h-2.3593063v1.3160877
		c-0.7488022-0.9757118-1.8828049-1.5883808-3.4257889-1.5883808c-3.0400391,0-5.4220276,2.3825626-5.4220276,5.6943245
		c0,3.312336,2.3819885,5.6943264,5.4220276,5.6943264c1.542984,0,2.6769867-0.6126537,3.4257889-1.5878086v1.3155136h2.3593063
		V24.7725468z M175.1342163,24.7725468c0-1.9054832,1.2474365-3.4706078,3.2890778-3.4706078
		c1.9508514,0,3.2669525,1.4970589,3.2669525,3.4706078c0,1.9735661-1.3161011,3.4706249-3.2669525,3.4706249
		C176.3816528,28.2431717,175.1342163,26.6780472,175.1342163,24.7725468 M186.5527344,29.6798859v0.1699085h0.1571655
		c0.0354462,0,0.0642242-0.0066376,0.0858002-0.0210266c0.0210571-0.013834,0.0320892-0.0354176,0.0320892-0.0647564
		c0-0.0282211-0.0110321-0.0492496-0.0320892-0.0630989c-0.0215759-0.014389-0.050354-0.0210266-0.0858002-0.0210266H186.5527344z
		 M186.7115936,29.5597992c0.0818787,0,0.144989,0.018259,0.1898041,0.0547905
		c0.044281,0.0365162,0.0664063,0.0863228,0.0664063,0.1494217c0,0.052578-0.0177002,0.0963058-0.0531006,0.1306076
		c-0.0354309,0.0343208-0.0857849,0.0553474-0.1510925,0.0631008l0.209198,0.2413006h-0.1638336l-0.1936798-0.2396469h-0.062561
		v0.2396469h-0.136673v-0.6392212H186.7115936z M186.6706238,30.4187374c0.074173,0,0.1438904-0.0143909,0.2075348-0.0426292
		c0.0642242-0.0276661,0.1206665-0.0664101,0.1687927-0.114563c0.0487213-0.0481358,0.0863495-0.1051369,0.1140137-0.1704483
		c0.0276947-0.0653133,0.0409698-0.1350498,0.0409698-0.2091961c0-0.0741615-0.0132751-0.143898-0.0409698-0.2086525
		c-0.0276642-0.0653133-0.0652924-0.1223145-0.1140137-0.1710072c-0.0481262-0.0481529-0.1045685-0.085783-0.1687927-0.1134644
		c-0.0636444-0.0276661-0.1333618-0.0414982-0.2075348-0.0414982c-0.0752563,0-0.1455536,0.0138321-0.2113953,0.0414982
		c-0.0658722,0.0276814-0.122879,0.0653114-0.1710205,0.1134644c-0.0487061,0.0486927-0.0863342,0.1056938-0.1139984,0.1710072
		c-0.0276642,0.0647545-0.0415192,0.134491-0.0415192,0.2086525c0,0.0741463,0.013855,0.1438828,0.0415192,0.2091961
		c0.0276642,0.0653114,0.0652924,0.1223125,0.1139984,0.1704483c0.0481415,0.0481529,0.1051483,0.0868969,0.1710205,0.114563
		C186.5250702,30.4043465,186.5953674,30.4187374,186.6706238,30.4187374 M186.6706238,29.1939716
		c0.0968475,0,0.1876068,0.0177174,0.2728729,0.0536747c0.0846405,0.0359745,0.1588287,0.0852413,0.2224579,0.1477852
		c0.0636444,0.0625248,0.1134644,0.1355896,0.1499786,0.2191582c0.0365143,0.0841103,0.0547943,0.1732197,0.0547943,0.2673111
		c0,0.0946331-0.01828,0.1837425-0.0547943,0.2667542c-0.0365143,0.0830135-0.0863342,0.1560612-0.1499786,0.2186031
		c-0.0636292,0.061985-0.1378174,0.1117916-0.2224579,0.1483231c-0.0852661,0.0365334-0.1760254,0.0547905-0.2728729,0.0547905
		c-0.0984955,0-0.190918-0.0182571-0.2772675-0.0547905c-0.0858002-0.0365314-0.1605072-0.086338-0.2235718-0.1483231
		c-0.0631104-0.062542-0.1129303-0.1355896-0.1494446-0.2186031c-0.0365143-0.0830116-0.054245-0.172121-0.054245-0.2667542
		c0-0.0940914,0.0177307-0.1832008,0.054245-0.2673111c0.0365143-0.0835686,0.0863342-0.1566334,0.1494446-0.2191582
		c0.0630646-0.0625439,0.1377716-0.1118107,0.2235718-0.1477852
		C186.4797058,29.211689,186.5721283,29.1939716,186.6706238,29.1939716 M183.9133911,24.7725468v-9.777586h-2.3592987v5.6716423
		c-0.7487793-0.9757118-1.882782-1.5883808-3.4252167-1.5883808c-3.0405884,0-5.4226074,2.3825626-5.4226074,5.6943245
		c0,3.312336,2.382019,5.6943264,5.4226074,5.6943264c1.5424347,0,2.6764374-0.6126537,3.4252167-1.5878086v1.3155136h2.3592987
		V24.7725468z M124.7254181,21.1884918c1.5202942,0,2.4954529,0.9524708,2.7450485,2.6310425H121.84478
		C122.093811,22.2544098,123.0468445,21.1884918,124.7254181,21.1884918 M124.7713547,19.0782223
		c-3.1761856,0-5.3993454,2.3139248-5.3993454,5.6943245c0,3.4484825,2.3139191,5.6943264,5.5576172,5.6943264
		c1.6337662,0,3.1308136-0.4084244,4.4468842-1.5202827l-1.1572418-1.7466545
		c-0.9076385,0.7261009-2.0643158,1.1345406-3.1534958,1.1345406c-1.5197372,0-2.9038773-0.7034168-3.2442551-2.6548405h8.0536346
		c0.0227051-0.2944183,0.0453796-0.5894127,0.0453796-0.9070892
		C129.8978577,21.3921471,127.8108368,19.0782223,124.7713547,19.0782223 M153.2418671,24.7725468
		c0-1.9054832,1.2480011-3.4706078,3.2896423-3.4706078c1.9508667,0,3.2669525,1.4970589,3.2669525,3.4706078
		c0,1.9735661-1.3160858,3.4706249-3.2669525,3.4706249C154.4898682,28.2431717,153.2418671,26.6780472,153.2418671,24.7725468
		 M162.0216217,24.7725468v-5.4220314h-2.359314v1.3160877c-0.7487946-0.9757118-1.8827972-1.5883808-3.4257813-1.5883808
		c-3.0400391,0-5.4220276,2.3825626-5.4220276,5.6943245c0,3.312336,2.3819885,5.6943264,5.4220276,5.6943264
		c1.542984,0,2.6769867-0.6126537,3.4257813-1.5878086v1.3155136h2.359314V24.7725468z M139.9250336,24.7725468
		c0,3.2896366,2.2917938,5.6943264,5.7850952,5.6943264c1.6337433,0,2.7223663-0.3630428,3.9017487-1.2933712l-1.1340027-1.9055004
		c-0.8843994,0.6353512-1.8147278,0.9751701-2.8358154,0.9751701c-1.8827972-0.0221424-3.2664032-1.3835945-3.2664032-3.4706249
		c0-2.0870132,1.383606-3.4484653,3.2664032-3.4706078c1.0210876,0,1.951416,0.339819,2.8358154,0.9751549l1.1340027-1.9054832
		c-1.1793823-0.9303303-2.2680054-1.2933884-3.9017487-1.2933884
		C142.2168274,19.0782223,139.9250336,21.4829102,139.9250336,24.7725468 M170.3242645,19.0782223
		c-1.3608856,0-2.2458344,0.6353512-2.8579559,1.5883808v-1.3160877h-2.3365784v10.8440628h2.3587494v-6.0800667
		c0-1.7920361,0.7714691-2.7904301,2.3144684-2.7904301c0.4765015,0,0.9751434,0.0680656,1.4743652,0.2722931l0.7260895-2.2231598
		C171.4815063,19.1689873,170.8007965,19.0782223,170.3242645,19.0782223 M107.121109,20.21278
		c-1.1340027-0.7488003-2.6996841-1.1345577-4.4236374-1.1345577c-2.7450485,0-4.5144043,1.3160877-4.5144043,3.4711647
		c0,1.7693539,1.3155289,2.8585129,3.7429047,3.1988716l1.1118546,0.1588459
		c1.2928314,0.1809731,1.9055023,0.5213318,1.9055023,1.1339855c0,0.8395634-0.8622589,1.3160877-2.4727707,1.3160877
		c-1.6331863,0-2.8131256-0.5218887-3.6073074-1.1345596l-1.1113052,1.8374195
		c1.2928314,0.9530277,2.9265747,1.4068356,4.6959305,1.4068356c3.1307907,0,4.9455261-1.4749012,4.9455261-3.5392303
		c0-1.9054852-1.428978-2.9038963-3.7882843-3.2442551l-1.1118622-0.1588287
		c-1.0210876-0.1356068-1.8374176-0.339819-1.8374176-1.065937c0-0.7941818,0.7709427-1.2701302,2.0643311-1.2701302
		c1.3835983,0,2.7223511,0.5213299,3.3803864,0.9297714L107.121109,20.21278z M137.543045,19.0782223
		c-1.3609161,0-2.2458649,0.6353512-2.8579559,1.5883808v-1.3160877h-2.3371582v10.8440628h2.3592987v-6.0800667
		c0-1.7920361,0.7714844-2.7904301,2.3144684-2.7904301c0.4759674,0,0.975174,0.0680656,1.47435,0.2722931l0.72612-2.2231598
		C138.7002869,19.1689873,138.0195465,19.0782223,137.543045,19.0782223 M117.4205856,19.3505154h-3.8563538v-3.2890778h-2.3820038
		v3.2890778h-2.2010193v2.1550961h2.2010193v4.9455242c0,2.5186939,0.9751511,4.0157375,3.7656021,4.0157375
		c1.0210953,0,2.2004623-0.3176594,2.9492569-0.8395653l-0.6807175-2.0189304
		c-0.7034149,0.4084244-1.4743576,0.6126518-2.0870132,0.6126518c-1.1799393,0-1.5651245-0.7261162-1.5651245-1.8147182v-4.9006996
		h3.8563538V19.3505154z M82.1665878,30.1945782v-6.8056259c0-2.5635185-1.6332092-4.2880306-4.2648087-4.31073
		c-1.3841324-0.0226841-2.8131104,0.4084396-3.8115234,1.9287395c-0.7482452-1.2026234-1.9281845-1.9287395-3.584053-1.9287395
		c-1.1572418,0-2.2912445,0.3403759-3.1761932,1.611063v-1.3387699h-2.3593063v10.8440628h2.3819885v-6.0119839
		c0-1.8828011,1.0437927-2.8806553,2.6543045-2.8806553c1.5651245,0,2.3593063,1.0205364,2.3593063,2.8579559v6.0346832h2.3819885
		v-6.0119839c0-1.8828011,1.0891724-2.8806553,2.6542969-2.8806553c1.6104965,0,2.3819962,1.0205364,2.3819962,2.8579559v6.0346832
		H82.1665878z"/>
</g>
</svg>
